# Blender v2.74 (sub 0) OBJ File: ''
# www.blender.org


mtllib Pillar.mtl

#
# object Pillar01
#

v -25.808653 0.000004 29.720671
v 26.367311 0.000004 29.720671
v -29.720671 -0.000004 -26.367311
v 30.279329 -0.000004 -26.367311
v -25.808653 6.480453 29.720671
v 30.279329 6.480452 25.808653
v -29.720671 6.480445 -26.367311
v 26.367311 6.480445 -30.279329
v -19.059959 6.480452 22.971977
v 23.530636 6.480451 19.059959
v -22.971977 6.480446 -19.618618
v 19.618618 6.480445 -23.530636
v -19.059959 22.110907 22.971973
v 23.530636 22.110905 19.059956
v -22.971977 22.110901 -19.618622
v 19.618618 22.110899 -23.530640
v -14.678405 29.122341 18.590418
v 19.149080 29.122341 14.678400
v -18.590422 29.122337 -15.237068
v 15.237063 29.122337 -19.149084
v -14.678405 40.291668 18.590416
v 19.149080 40.291668 14.678398
v -18.590422 40.291660 -15.237070
v 15.237063 40.291660 -19.149086
v -16.869181 40.291668 20.781193
v 21.339857 40.291668 16.869175
v -20.781199 40.291660 -17.427845
v 17.427839 40.291660 -21.339863
v -16.869181 50.408855 20.781191
v 21.339857 50.408855 16.869173
v -20.781199 50.408848 -17.427847
v 17.427839 50.408848 -21.339865
v -12.006167 57.697235 15.918176
v 17.477547 57.697231 12.006159
v -15.918184 57.697231 -13.681312
v 13.565530 57.697227 -17.593327
v -11.546433 130.325211 15.918170
v 17.176126 130.325211 12.006153
v -15.458451 130.325211 -13.397501
v 13.264110 130.325211 -17.309517
v -18.507008 131.883148 22.419010
v 22.977684 131.883148 18.506992
v -22.419025 131.883148 -19.065681
v 19.065666 131.883148 -22.977699
v -18.507008 144.114151 22.419008
v 22.977684 144.114151 18.506990
v -22.419025 144.114151 -19.065683
v 19.065666 144.114151 -22.977701
v -29.720671 0.000004 25.808653
v 30.279329 0.000004 25.808653
v -25.808653 -0.000004 -30.279329
v 26.367311 -0.000004 -30.279329
v -29.720671 6.480452 25.808653
v 26.367311 6.480453 29.720671
v -25.808653 6.480445 -30.279329
v 30.279329 6.480445 -26.367311
v -22.971977 6.480451 19.059959
v 19.618618 6.480452 22.971977
v -19.059959 6.480445 -23.530636
v 23.530636 6.480446 -19.618618
v -22.971977 22.110905 19.059956
v 19.618618 22.110907 22.971973
v -19.059959 22.110899 -23.530640
v 23.530636 22.110901 -19.618622
v -18.590422 29.122341 14.678400
v 15.237063 29.122341 18.590418
v -14.678405 29.122337 -19.149084
v 19.149080 29.122337 -15.237068
v -18.590422 40.291668 14.678398
v 15.237063 40.291668 18.590416
v -14.678405 40.291660 -19.149086
v 19.149080 40.291660 -15.237070
v -20.781199 40.291668 16.869175
v 17.427839 40.291668 20.781193
v -16.869181 40.291660 -21.339863
v 21.339857 40.291660 -17.427845
v -20.781199 50.408855 16.869173
v 17.427839 50.408855 20.781191
v -16.869181 50.408848 -21.339865
v 21.339857 50.408848 -17.427847
v -15.918184 57.697231 12.006159
v 13.565530 57.697235 15.918176
v -12.006167 57.697227 -17.593328
v 17.477547 57.697231 -13.681313
v -15.458450 130.325211 12.006153
v 13.264110 130.325211 15.918170
v -11.546433 130.325211 -17.309517
v 17.176126 130.325211 -13.397501
v -22.419025 131.883148 18.506992
v 19.065666 131.883148 22.419010
v -18.507008 131.883148 -22.977699
v 22.977684 131.883148 -19.065681
v -22.419025 144.114151 18.506990
v 19.065666 144.114151 22.419008
v -18.507008 144.114151 -22.977701
v 22.977684 144.114151 -19.065683
v -15.074756 79.790070 12.006157
v 13.408255 79.790070 15.918174
v -11.162739 79.790070 -17.593330
v -11.162739 79.790070 15.918174
v 17.320272 79.790070 12.006157
v -15.074757 79.790070 -13.681314
v -11.295768 108.232361 -17.462721
v 17.187243 108.232361 -13.550705
v -15.207785 108.232361 -13.550705
v 13.275226 108.232361 -17.462721
v -15.918184 82.160263 12.473997
v 12.564826 82.160263 16.386017
v -12.006167 82.160263 -16.392134
v 16.898558 80.975166 -13.080715
v -12.006167 82.160263 16.386017
v 16.476843 82.160263 12.473997
v -15.918184 82.160263 -12.480118
v 12.986540 80.975166 -16.992731
v -15.562984 107.047264 11.915876
v 12.920026 107.047264 15.827893
v -12.006167 105.862167 -16.476854
v 16.476843 105.862167 -12.564838
v -11.650968 107.047264 15.827893
v 16.832043 107.047264 11.915876
v -15.918184 105.862167 -12.564838
v 12.564826 105.862167 -16.476854

vt 0.012392 0.014428
vt 0.281337 0.014428
vt 0.280340 0.047831
vt 0.012392 0.047832
vt 0.493830 0.630685
vt 0.762660 0.630685
vt 0.761421 0.661424
vt 0.495069 0.661424
vt 0.002952 0.194229
vt 0.271897 0.194229
vt 0.270488 0.226494
vt 0.002952 0.226333
vt 0.010665 0.104020
vt 0.279611 0.104020
vt 0.278201 0.136286
vt 0.010665 0.136124
vt 0.245554 0.082618
vt 0.047179 0.082618
vt 0.729285 0.694974
vt 0.527205 0.694974
vt 0.239517 0.260388
vt 0.038736 0.260388
vt 0.246234 0.170179
vt 0.045452 0.170179
vt 0.005973 0.338667
vt 0.224465 0.338667
vt 0.224465 0.401140
vt 0.005973 0.401140
vt 0.270149 0.338667
vt 0.503332 0.338667
vt 0.503332 0.401140
vt 0.270149 0.401140
vt 0.973987 0.599589
vt 0.748064 0.599589
vt 0.748064 0.537117
vt 0.973987 0.537117
vt 0.702383 0.599589
vt 0.476647 0.599589
vt 0.476647 0.537117
vt 0.702383 0.537117
vt 0.226130 0.429043
vt 0.057139 0.429043
vt 0.452166 0.429043
vt 0.271813 0.429043
vt 0.748086 0.509213
vt 0.922823 0.509213
vt 0.527811 0.509213
vt 0.702404 0.509213
vt 0.226130 0.471650
vt 0.057139 0.471650
vt 0.452166 0.471650
vt 0.271813 0.471650
vt 0.748086 0.466607
vt 0.922823 0.466607
vt 0.527811 0.466607
vt 0.702404 0.466607
vt 0.225298 0.471650
vt 0.031556 0.471650
vt 0.477749 0.471650
vt 0.270981 0.471650
vt 0.948405 0.466607
vt 0.502229 0.466607
vt 0.225298 0.514068
vt 0.031556 0.514068
vt 0.477749 0.514068
vt 0.270981 0.514068
vt 0.748075 0.424188
vt 0.948405 0.424188
vt 0.502229 0.424188
vt 0.702393 0.424188
vt 0.232798 0.542671
vt 0.088345 0.542671
vt 0.433344 0.542671
vt 0.278481 0.542671
vt 0.754615 0.395585
vt 0.903980 0.395585
vt 0.559016 0.395585
vt 0.708933 0.395585
vt 0.231909 0.628602
vt 0.093109 0.628602
vt 0.426453 0.628602
vt 0.277592 0.628602
vt 0.759541 0.307058
vt 0.897093 0.301072
vt 0.563942 0.305761
vt 0.713859 0.307058
vt 0.091597 0.830304
vt 0.230440 0.830304
vt 0.252329 0.868957
vt 0.053668 0.868957
vt 0.278777 0.830304
vt 0.427932 0.830304
vt 0.458322 0.868957
vt 0.900469 0.107952
vt 0.755737 0.107952
vt 0.732647 0.069299
vt 0.934175 0.069299
vt 0.708756 0.107952
vt 0.562907 0.107952
vt 0.527407 0.069299
vt 0.252329 0.935043
vt 0.053668 0.935043
vt 0.458322 0.935043
vt 0.732647 0.003213
vt 0.934175 0.003213
vt 0.527407 0.003213
vt 0.476459 0.630685
vt 0.477584 0.660631
vt 0.296635 0.133523
vt 0.296635 0.104020
vt 0.780031 0.630685
vt 0.778906 0.660631
vt 0.288922 0.194229
vt 0.288922 0.223731
vt 0.294318 0.154644
vt 0.265171 0.184881
vt 0.479457 0.681275
vt 0.508826 0.710644
vt 0.286605 0.244853
vt 0.257458 0.275090
vt 0.777033 0.681275
vt 0.747664 0.710644
vt 0.447203 0.599589
vt 0.447203 0.537117
vt 1.000069 0.599589
vt 1.000069 0.537117
vt 0.498368 0.509213
vt 0.948905 0.509213
vt 0.498368 0.466607
vt 0.948905 0.466607
vt 0.472785 0.466607
vt 0.974487 0.466607
vt 0.472785 0.424188
vt 0.974487 0.424188
vt 0.529572 0.395585
vt 0.930062 0.395585
vt 0.534498 0.305366
vt 0.923175 0.300678
vt 0.620674 0.748226
vt 0.648099 0.748226
vt 0.648099 0.786879
vt 0.620674 0.786879
vt 0.661809 0.748226
vt 0.689240 0.748226
vt 0.689240 0.786879
vt 0.661809 0.786879
vt 0.563643 0.748226
vt 0.587527 0.748226
vt 0.587527 0.786879
vt 0.563643 0.786879
vt 0.516447 0.748226
vt 0.543877 0.748226
vt 0.543877 0.786879
vt 0.516447 0.786879
vt 0.648099 0.852965
vt 0.620674 0.852965
vt 0.689240 0.852965
vt 0.661809 0.852965
vt 0.587527 0.852965
vt 0.563643 0.852965
vt 0.543877 0.852965
vt 0.516447 0.852965
vt 0.229695 0.736721
vt 0.090896 0.736721
vt 0.430917 0.736721
vt 0.275379 0.736721
vt 0.758002 0.193379
vt 0.901522 0.192139
vt 0.561617 0.196847
vt 0.712320 0.193379
vt 0.532173 0.196452
vt 0.532257 0.107952
vt 0.926645 0.107952
vt 0.927604 0.191744
vt 0.224324 0.637928
vt 0.085524 0.637928
vt 0.420960 0.729685
vt 0.270007 0.637928
vt 0.747604 0.297567
vt 0.748099 0.202838
vt 0.891619 0.201598
vt 0.556285 0.296306
vt 0.702417 0.202838
vt 0.701923 0.297566
vt 0.526842 0.295911
vt 0.917701 0.201203
vt 0.328461 0.053510
vt 0.500050 0.053510
vt 0.500050 0.260830
vt 0.328461 0.260830
vt 0.310596 0.071376
vt 0.310596 0.242964
vt 0.517915 0.242964
vt 0.517915 0.071376
vt 0.970322 0.988966
vt 0.732043 0.988966
vt 0.732043 0.714956
vt 0.970322 0.714956
vt 0.714177 0.732821
vt 0.714177 0.971100
vt 0.988188 0.971100
vt 0.988188 0.732821

vn 0.000000 0.000000 1.000000
vn 1.000000 0.000000 0.000000
vn 0.000000 0.000000 -1.000000
vn -1.000000 0.000000 0.000000
vn 0.000000 1.000000 -0.000000
vn 0.000000 0.529900 0.848000
vn 0.848000 0.529900 -0.000000
vn 0.000000 0.529900 -0.848000
vn -0.848000 0.529900 -0.000000
vn 0.000000 -1.000000 0.000000
vn 0.000000 0.555000 0.831800
vn 0.883600 0.468200 -0.000000
vn 0.000000 0.457200 -0.889400
vn -0.831800 0.555000 -0.000000
vn 0.999800 0.016300 -0.007900
vn 0.011800 0.013200 -0.999800
vn -0.999300 0.038100 0.000000
vn 0.000000 -0.972500 0.233100
vn 0.259300 -0.965800 0.000000
vn 0.000000 -0.964200 -0.265000
vn -0.218400 -0.975900 0.000000
vn 0.707100 0.000000 0.707100
vn -0.707100 0.000000 0.707100
vn 0.707100 0.000000 -0.707100
vn -0.707100 0.000000 -0.707100
vn -0.529800 0.662200 0.529800
vn 0.529800 0.662200 0.529800
vn -0.529800 0.662200 -0.529800
vn 0.529800 0.662200 -0.529800
vn -0.514300 0.686300 0.514300
vn 0.539700 0.646100 0.539700
vn -0.542700 0.641100 -0.542700
vn 0.568900 0.593900 -0.568900
vn -0.706800 0.027000 0.706800
vn 0.707100 0.005000 0.707100
vn -0.706800 0.027000 -0.706800
vn 0.706700 0.035800 -0.706700
vn -0.114200 -0.986900 0.114200
vn 0.124700 -0.984300 0.124700
vn -0.121500 -0.985100 -0.121500
vn 0.133400 -0.982000 -0.133400
vn 0.000000 -0.003900 1.000000
vn 0.999900 -0.007400 0.006800
vn 0.000000 0.006900 -1.000000
vn -1.000000 -0.003200 -0.007100
vn -0.707100 0.000400 0.707100
vn 0.707000 -0.013200 0.707000
vn -0.707100 -0.003100 -0.707100
vn 0.707100 0.005300 -0.707100
vn 0.000000 0.022400 0.999700
vn 1.000000 0.001300 0.001300
vn -0.011900 0.008800 -0.999900
vn -0.999900 0.007400 0.007000
vn -0.706900 0.025900 0.706900
vn 0.707100 0.005800 0.707100
vn -0.707100 -0.002500 -0.707100
vn 0.706900 0.026600 -0.706900
vn 0.000000 -0.193600 0.981100
vn 0.942100 0.335300 -0.000000
vn 0.000000 0.452100 -0.892000
vn -0.942100 -0.335300 0.000000
vn -0.658500 -0.364300 0.658500
vn 0.702700 0.111400 0.702700
vn -0.703100 0.106100 -0.703100
vn 0.957900 -0.287100 0.000000
vn 0.000000 -0.384000 -0.923300
vn -0.957900 0.287100 -0.000000
vn -0.704700 -0.081900 -0.704700
vn 0.630900 -0.451500 -0.630900

usemtl 07___Default
f 1/1/1 2/2/1 54/3/1 5/4/1
f 50/5/2 4/6/2 56/7/2 6/8/2
f 52/9/3 51/10/3 55/11/3 8/12/3
f 3/13/4 49/14/4 53/15/4 7/16/4
f 5/4/5 54/3/5 58/17/5 9/18/5
f 6/8/5 56/7/5 60/19/5 10/20/5
f 8/12/5 55/11/5 59/21/5 12/22/5
f 7/16/5 53/15/5 57/23/5 11/24/5
f 9/25/1 58/26/1 62/27/1 13/28/1
f 10/29/2 60/30/2 64/31/2 14/32/2
f 12/33/3 59/34/3 63/35/3 16/36/3
f 11/37/4 57/38/4 61/39/4 15/40/4
f 13/28/6 62/27/6 66/41/6 17/42/6
f 14/32/7 64/31/7 68/43/7 18/44/7
f 16/36/8 63/35/8 67/45/8 20/46/8
f 15/40/9 61/39/9 65/47/9 19/48/9
f 17/42/1 66/41/1 70/49/1 21/50/1
f 18/44/2 68/43/2 72/51/2 22/52/2
f 20/46/3 67/45/3 71/53/3 24/54/3
f 19/48/4 65/47/4 69/55/4 23/56/4
f 21/50/10 70/49/10 74/57/10 25/58/10
f 22/52/10 72/51/10 76/59/10 26/60/10
f 24/54/10 71/53/10 75/53/10 28/61/10
f 23/56/10 69/55/10 73/62/10 27/56/10
f 25/58/1 74/57/1 78/63/1 29/64/1
f 26/60/2 76/59/2 80/65/2 30/66/2
f 28/61/3 75/53/3 79/67/3 32/68/3
f 27/56/4 73/62/4 77/69/4 31/70/4
f 29/64/11 78/63/11 82/71/11 33/72/11
f 30/66/12 80/65/12 84/73/12 34/74/12
f 32/68/13 79/67/13 83/75/13 36/76/13
f 31/70/14 77/69/14 81/77/14 35/78/14
f 33/72/1 82/71/1 98/79/1 100/80/1
f 34/74/15 84/73/15 110/81/15 101/82/15
f 36/76/16 83/75/16 99/83/16 114/84/16
f 35/78/17 81/77/17 97/85/17 102/86/17
f 37/87/18 86/88/18 90/89/18 41/90/18
f 38/91/19 88/92/19 92/93/19 42/89/19
f 40/94/20 87/95/20 91/96/20 44/97/20
f 39/98/21 85/99/21 89/100/21 43/96/21
f 41/90/1 90/89/1 94/101/1 45/102/1
f 42/89/2 92/93/2 96/103/2 46/101/2
f 44/97/3 91/96/3 95/104/3 48/105/3
f 43/96/4 89/100/4 93/106/4 47/104/4
f 2/107/22 50/5/22 6/8/22 54/108/22
f 5/109/23 53/15/23 49/14/23 1/110/23
f 4/6/24 52/111/24 8/112/24 56/7/24
f 51/10/25 3/113/25 7/114/25 55/11/25
f 53/15/5 5/115/5 9/116/5 57/23/5
f 54/117/5 6/8/5 10/20/5 58/118/5
f 55/11/5 7/119/5 11/120/5 59/21/5
f 56/7/5 8/121/5 12/122/5 60/19/5
f 57/38/23 9/123/23 13/124/23 61/39/23
f 58/26/22 10/29/22 14/32/22 62/27/22
f 59/34/25 11/37/25 15/40/25 63/35/25
f 60/125/24 12/33/24 16/36/24 64/126/24
f 61/39/26 13/124/26 17/127/26 65/47/26
f 62/27/27 14/32/27 18/44/27 66/41/27
f 63/35/28 15/40/28 19/48/28 67/45/28
f 64/126/29 16/36/29 20/46/29 68/128/29
f 65/47/23 17/127/23 21/129/23 69/55/23
f 66/41/22 18/44/22 22/52/22 70/49/22
f 67/45/25 19/48/25 23/56/25 71/53/25
f 68/128/24 20/46/24 24/54/24 72/130/24
f 69/55/10 21/129/10 25/131/10 73/62/10
f 70/49/10 22/52/10 26/60/10 74/57/10
f 71/53/10 23/56/10 27/56/10 75/53/10
f 72/130/10 24/54/10 28/61/10 76/132/10
f 73/62/23 25/131/23 29/133/23 77/69/23
f 74/57/22 26/60/22 30/66/22 78/63/22
f 75/53/25 27/56/25 31/70/25 79/67/25
f 76/132/24 28/61/24 32/68/24 80/134/24
f 77/69/30 29/133/30 33/135/30 81/77/30
f 78/63/31 30/66/31 34/74/31 82/71/31
f 79/67/32 31/70/32 35/78/32 83/75/32
f 80/134/33 32/68/33 36/76/33 84/136/33
f 81/77/34 33/135/34 100/137/34 97/85/34
f 82/71/35 34/74/35 101/82/35 98/79/35
f 83/75/36 35/78/36 102/86/36 99/83/36
f 84/136/37 36/76/37 114/84/37 110/138/37
f 85/139/38 37/140/38 41/141/38 89/142/38
f 86/143/39 38/144/39 42/145/39 90/146/39
f 87/147/40 39/148/40 43/149/40 91/150/40
f 88/151/41 40/152/41 44/153/41 92/154/41
f 89/142/23 41/141/23 45/155/23 93/156/23
f 90/146/22 42/145/22 46/157/22 94/158/22
f 91/150/25 43/149/25 47/159/25 95/160/25
f 92/154/24 44/153/24 48/161/24 96/162/24
f 116/163/42 86/88/42 37/87/42 119/164/42
f 104/165/43 88/92/43 38/91/43 120/166/43
f 103/167/44 87/95/44 40/94/44 106/168/44
f 115/169/45 85/99/45 39/98/45 105/170/45
f 119/171/46 37/172/46 85/99/46 115/169/46
f 120/166/47 38/91/47 86/88/47 116/163/47
f 105/170/48 39/98/48 87/95/48 103/167/48
f 106/168/49 40/94/49 88/173/49 104/174/49
f 108/175/50 116/163/50 119/164/50 111/176/50
f 110/81/51 118/177/51 120/166/51 112/178/51
f 109/179/52 117/180/52 122/181/52 114/84/52
f 107/182/53 115/169/53 121/183/53 113/184/53
f 111/185/54 119/171/54 115/169/54 107/182/54
f 112/178/55 120/166/55 116/163/55 108/175/55
f 113/184/56 121/183/56 117/180/56 109/179/56
f 114/84/57 122/181/57 118/186/57 110/138/57
f 98/79/58 108/175/58 111/176/58 100/80/58
f 110/81/59 112/178/59 101/82/59
f 99/83/60 109/179/60 114/84/60
f 97/85/61 107/182/61 113/184/61 102/86/61
f 100/137/62 111/185/62 107/182/62 97/85/62
f 101/82/63 112/178/63 108/175/63 98/79/63
f 102/86/64 113/184/64 109/179/64 99/83/64
f 118/177/65 104/165/65 120/166/65
f 117/180/66 103/167/66 106/168/66 122/181/66
f 115/169/67 105/170/67 121/183/67
f 121/183/68 105/170/68 103/167/68 117/180/68
f 122/181/69 106/168/69 104/174/69 118/186/69
f 47/187/5 93/188/5 46/189/5 96/190/5
f 95/191/5 47/187/5 96/190/5 48/192/5
f 94/193/5 46/189/5 93/188/5 45/194/5
f 4/195/10 50/196/10 49/197/10 3/198/10
f 1/199/10 49/197/10 50/196/10 2/200/10
f 52/201/10 4/195/10 3/198/10 51/202/10
